<?xml version="1.0" encoding="UTF-8" standalone="no"?>
<!-- Created with Inkscape (http://www.inkscape.org/) -->

<svg
   xmlns:dc="http://purl.org/dc/elements/1.1/"
   xmlns:cc="http://creativecommons.org/ns#"
   xmlns:rdf="http://www.w3.org/1999/02/22-rdf-syntax-ns#"
   xmlns:svg="http://www.w3.org/2000/svg"
   xmlns="http://www.w3.org/2000/svg"
   xmlns:sodipodi="http://sodipodi.sourceforge.net/DTD/sodipodi-0.dtd"
   xmlns:inkscape="http://www.inkscape.org/namespaces/inkscape"
   width="210mm"
   height="297mm"
   id="svg3189"
   version="1.1"
   inkscape:version="0.48.4 r9939"
   sodipodi:docname="play.svg"
   inkscape:export-filename="C:\Users\rpau\workspace\SimplePopupMenu\icons\hoja.png"
   inkscape:export-xdpi="100"
   inkscape:export-ydpi="100">
  <defs
     id="defs3191" />
  <sodipodi:namedview
     id="base"
     pagecolor="#ffffff"
     bordercolor="#666666"
     borderopacity="1.0"
     inkscape:pageopacity="0.0"
     inkscape:pageshadow="2"
     inkscape:zoom="5.6"
     inkscape:cx="246.90732"
     inkscape:cy="636.07972"
     inkscape:document-units="px"
     inkscape:current-layer="layer1"
     showgrid="false"
     inkscape:window-width="1366"
     inkscape:window-height="706"
     inkscape:window-x="-8"
     inkscape:window-y="-8"
     inkscape:window-maximized="1" />
  <metadata
     id="metadata3194">
    <rdf:RDF>
      <cc:Work
         rdf:about="">
        <dc:format>image/svg+xml</dc:format>
        <dc:type
           rdf:resource="http://purl.org/dc/dcmitype/StillImage" />
        <dc:title></dc:title>
      </cc:Work>
    </rdf:RDF>
  </metadata>
  <g
     inkscape:label="Capa 1"
     inkscape:groupmode="layer"
     id="layer1">
    <path
       style="fill:#6cb433;stroke:none"
       d="m 225.00114,422.1032 -0.0667,-1.36025 0.13333,-1.36023 0.33337,-1.28862 0.53328,-1.28865 0.7334,-1.0739 0.93337,-0.93064 0.60001,-0.35798 0.6,-0.28633 0.66668,-0.21481 0.73333,-0.14318 0.73339,-0.0716 0.60001,-0.14316 0.53335,-0.0716 0.53335,-0.0716 0.79998,-0.21473 0.60001,-0.21475 0.53335,-0.2864 0.40002,-0.21475 0.4667,-0.35799 0.46669,-0.35791 0.13332,-0.0716 0.13332,0 0.13339,0.14316 0.19998,0.21475 0.26664,0.57273 0.26671,0.85913 0.13332,1.00223 0.0667,1.14544 -0.0667,1.28868 -0.33337,1.36022 -0.39996,1.21705 -0.53335,1.07387 -0.53335,0.8591 -0.6,0.71591 -0.53336,0.57273 -0.46669,0.42954 -0.46669,0.28638 -0.33336,0.21475 -0.19998,0.21477 -0.33337,0.14318 -0.79999,0.35795 -0.19998,0.0716 -0.20004,0.0716 -0.66669,0.14317 -0.59999,0.0716 -0.19999,0.0716 -0.20004,0 -0.33331,0 -0.40003,-0.0716 -0.86671,-0.0716 -0.86665,-0.21475 -0.40002,-0.21479 -0.26671,-0.14317 -0.19998,-0.14318 -0.20006,0 -0.19998,0.21477 -0.19998,0.28637 -0.40003,0.57271 -0.19997,0.28636 -0.20005,0.14321 -0.33331,0.0716 -0.13338,0 -0.13332,-0.14317 -0.26664,-0.21478 -0.13339,-0.35797 -0.0667,-0.35794 0,-0.28637 0.0667,-0.0716 0,-0.0716 0.20005,-0.14318 0.19998,-0.21477 0.2667,-0.28637 0.19998,-0.28635 0.20005,-0.35795 0.13333,-0.28637 0,-0.35795 0,0 z"
       id="path3077"
       inkscape:connector-curvature="0"
       inkscape:export-filename="C:\Users\rpau\workspace\SimplePopupMenu\icons\hoja.png"
       inkscape:export-xdpi="100"
       inkscape:export-ydpi="100" />
    <path
       style="fill:none;stroke:#ffffff;stroke-width:1.49341726;stroke-linecap:round;stroke-linejoin:miter;stroke-miterlimit:4;stroke-opacity:1;stroke-dasharray:none"
       d="m 227.62763,421.72714 c 0,0 1.60626,-3.06438 2.70021,-4.18416 1.09396,-1.11977 2.16903,-1.78214 2.16903,-1.78214"
       id="path3829"
       inkscape:connector-curvature="0"
       sodipodi:nodetypes="czc"
       inkscape:export-filename="C:\Users\rpau\workspace\SimplePopupMenu\icons\hoja.png"
       inkscape:export-xdpi="100"
       inkscape:export-ydpi="100" />
  </g>
</svg>
